<?xml version="1.0" encoding="UTF-8"?>
<svg xmlns="http://www.w3.org/2000/svg" viewBox="0 0 120 120">
    <defs>
        <style>.cls-1{fill:#b8bcc4;}.cls-2{fill:#0b1520;}</style>
    </defs>
    <polygon class="cls-1" points="120 80 0 80 7.22 6.09 15.97 0 101.36 0 112.36 5.94 120 80"/>
    <path class="cls-2"
          d="M70.56,10s-17.29.9-30.33,13.13l-5.33,16.11s2.89,6.84,7.67,10.7c0,0-9.33-2.98-14.33-8.05l-.44,7.06s-4.33-5.85-11.78-10.15l-1.56-16.22S12.83,10.38,0,10.82v79.39c0,16.45,13.43,29.79,30,29.79h60c16.57,0,30-13.34,30-29.79v-38.6s-1.37-3.53-6.78-4.98c0,0,1.64-28.52-9.19-29.79-1.5-.18-8.04-.4-12.39,0-3.28.3-5.11,1.88-5.11,1.88-5.35-6.42-15.97-8.72-15.97-8.72Z"/>
    <path class="cls-1"
          d="M58.19,17.31c-1.72-.77-6.28,1.28-6.84,3.93s1.73,3.63,3.28,3.52c2.25-.17,10.06-4.52,3.56-7.45Z"/>
    <path class="cls-1" d="M86.97,18.83s-6.56-1.81-8.83,2.13,2.78,9.35,7.94,8.57c4.19-.63,7.11-8.39.89-10.7Z"/>
</svg>